<svg width="15" height="13" viewBox="0 0 15 13" fill="none" xmlns="http://www.w3.org/2000/svg">
<path fill-rule="evenodd" clip-rule="evenodd" d="M14.026 0H0.974C0.436 0 0 0.436168 0 0.974375V9.02947C0 9.56768 0.436 10.0038 0.974 10.0038H7V12.2867C7 12.7159 7.351 13 7.717 13C7.892 13 8.07 12.935 8.215 12.7899L11 10.0038H14.026C14.564 10.0038 15 9.56768 15 9.02947V0.974375C15 0.436168 14.564 0 14.026 0ZM7.5 2C7.77614 2 8 2.22386 8 2.5V4.5H10C10.2761 4.5 10.5 4.72386 10.5 5C10.5 5.27614 10.2761 5.5 10 5.5H8V7.5C8 7.77614 7.77614 8 7.5 8C7.22386 8 7 7.77614 7 7.5V5.5H5C4.72386 5.5 4.5 5.27614 4.5 5C4.5 4.72386 4.72386 4.5 5 4.5H7V2.5C7 2.22386 7.22386 2 7.5 2Z" fill="#2993E5"/>
</svg>
