<svg width="15" height="15" viewBox="0 0 15 15" fill="none" xmlns="http://www.w3.org/2000/svg">
<path fill-rule="evenodd" clip-rule="evenodd" d="M14.8535 0.853516C15.0488 0.658203 15.0488 0.341797 14.8535 0.146484C14.6583 -0.0488281 14.3417 -0.0488281 14.1465 0.146484L12.2929 2L2.289 12.0039L0.146454 14.1465C-0.0488129 14.3418 -0.0488129 14.6582 0.146454 14.8535C0.341705 15.0488 0.658295 15.0488 0.853546 14.8535L3.70316 12.0039H7V14.2866C7 14.7158 7.351 15 7.717 15C7.892 15 8.07001 14.9351 8.215 14.79L11 12.0039H14.026C14.564 12.0039 15 11.5679 15 11.0293V2.97461C15 2.43604 14.564 2 14.026 2H13.7071L14.8535 0.853516ZM1.43933 11.4395L10.8788 2H0.973999C0.436005 2 0 2.43604 0 2.97461V11.0293C0 11.5361 0.385818 11.9521 0.87941 11.9995L1.43933 11.4395Z" fill="#D8D8D9"/>
</svg>
