<svg width="13" height="13" viewBox="0 0 13 13" fill="none" xmlns="http://www.w3.org/2000/svg">
<path fill-rule="evenodd" clip-rule="evenodd" d="M12.0002 0.00299072H7.00134C6.7254 0.00299072 6.50145 0.226991 6.50145 0.502991C6.50145 0.778991 6.7254 1.00299 7.00134 1.00299H11.2933L3.64611 8.65299C3.45016 8.84799 3.45016 9.16499 3.64611 9.35999C3.74309 9.45799 3.87106 9.50599 3.99903 9.50599C4.127 9.50599 4.25497 9.45799 4.35295 9.35999L12.0002 1.71099V6.00299C12.0002 6.27899 12.2241 6.50299 12.5001 6.50299C12.776 6.50299 13 6.27899 13 6.00299V1.00299C13 0.451991 12.5521 0.00299072 12.0002 0.00299072ZM12.997 12.5C12.997 12.776 12.7731 13 12.4971 13H0.999769C0.447897 13 0 12.551 0 12V0.5C0 0.223 0.223948 0 0.499885 0C0.775821 0 0.999769 0.223 0.999769 0.5V12H12.4971C12.7731 12 12.997 12.223 12.997 12.5Z" fill="#2993E5"/>
</svg>
