<svg width="20" height="20" viewBox="0 0 20 20" fill="none" xmlns="http://www.w3.org/2000/svg">
<path fill-rule="evenodd" clip-rule="evenodd" d="M9.28354 4.33544L9.28357 4.33547L9.28358 4.33545L10 5.05189L10.7164 4.33551L10.7164 4.33552L10.7164 4.33547C12.497 2.55488 15.384 2.55488 17.1645 4.33547C18.9451 6.11606 18.9451 9.00297 17.1645 10.7836L17.1579 10.7902L16.4481 11.5L16.4481 11.5L10 17.9481L10 17.9481L9.99994 17.9482L3.55184 11.5001L3.55192 11.5L2.84593 10.794L2.83544 10.7835C1.05485 9.00295 1.05485 6.11604 2.83544 4.33544C4.61604 2.55485 7.50295 2.55485 9.28354 4.33544Z" fill="#E9417C"/>
</svg>
