<svg width="15" height="15" viewBox="0 0 15 15" fill="none" xmlns="http://www.w3.org/2000/svg">
<path fill-rule="evenodd" clip-rule="evenodd" d="M8.5 3C8.5 4.65674 7.15686 6 5.5 6C3.84314 6 2.5 4.65674 2.5 3C2.5 1.34326 3.84314 0 5.5 0C7.15686 0 8.5 1.34326 8.5 3ZM11.5 15C13.433 15 15 13.4331 15 11.5C15 9.56689 13.433 8 11.5 8C9.56702 8 8 9.56689 8 11.5C8 13.4331 9.56702 15 11.5 15ZM10.3536 13.3535L13.3536 10.3535C13.5488 10.1582 13.5488 9.8418 13.3536 9.64648C13.1583 9.45117 12.8417 9.45117 12.6464 9.64648L9.64642 12.6465C9.45117 12.8418 9.45117 13.1582 9.64642 13.3535C9.84174 13.5488 10.1583 13.5488 10.3536 13.3535ZM5.5 7C6.51447 7 7.44073 6.62231 8.14587 6H9C9.76459 6 10.429 6.42896 10.7656 7.05957C8.79114 7.38379 7.24933 8.99292 7.02747 11H1C0.447693 11 0 10.5522 0 10V8C0 6.89551 0.895447 6 2 6H2.85413C3.55927 6.62231 4.48553 7 5.5 7Z" fill="#DD3131"/>
</svg>
