<svg width="12" height="12" viewBox="0 0 12 12" fill="none" xmlns="http://www.w3.org/2000/svg">
<path fill-rule="evenodd" clip-rule="evenodd" d="M6.20787 5.49962L10.8536 0.85424C11.0488 0.659014 11.0488 0.341646 10.8536 0.14642C10.6573 -0.0488066 10.3409 -0.0488066 10.1457 0.14642L5.5 4.7918L0.854298 0.14642C0.659059 -0.0488066 0.342671 -0.0488066 0.14643 0.14642C-0.0488099 0.341646 -0.0488099 0.659014 0.14643 0.85424L4.79213 5.49962L0.14643 10.145C-0.0488099 10.3402 -0.0488099 10.6576 0.14643 10.8528C0.24455 10.9509 0.372707 11 0.500865 11C0.629022 11 0.757179 10.9509 0.854298 10.8528L5.5 6.20745L10.1457 10.8528C10.2428 10.9509 10.371 11 10.4991 11C10.6273 11 10.7554 10.9509 10.8536 10.8528C11.0488 10.6576 11.0488 10.3402 10.8536 10.145L6.20787 5.49962Z" transform="translate(0.5 0.5)" fill="#9F9FA0"/>
</svg>
